<!-- Neospring Neo! https://github.com/trisuaso/trisuaso/tree/main/assets/neospring-neo -->
<svg
    width="128"
    height="128"
    viewBox="0 0 128 128"
    fill="none"
    xmlns="http://www.w3.org/2000/svg"
>
    <g clip-path="url(#clip0_1055_2)">
        <path
            d="M104.243 47.3207L111.503 11.4185C112.024 8.84469 109.279 6.85294 107.057 8.19272L76.0728 26.8813C74.2306 27.9924 74.1304 30.6661 75.8832 31.9379L99.6077 49.1515C101.361 50.4233 103.812 49.4553 104.243 47.3207Z"
            fill="#252525"
            stroke="#EAAEC1"
            stroke-width="2"
        />
        <path
            d="M107.502 12.4031L101.503 40.9678L82.9286 27.4909L107.502 12.4031Z"
            fill="#EAAEC1"
        />
        <path
            d="M51.9191 25.7015L20.9411 7.00799C18.7203 5.66785 15.9752 7.6596 16.4952 10.2338L23.7486 46.141C24.1799 48.2758 26.6305 49.2442 28.3833 47.9724L52.1078 30.7588C53.8607 29.487 53.7609 26.813 51.9191 25.7015Z"
            fill="#252525"
            stroke="#EAAEC1"
            stroke-width="2"
        />
        <path
            d="M20.4436 10.8377L45.0208 25.9261L26.4481 39.4017L20.4436 10.8377Z"
            fill="#EAAEC1"
        />
        <rect
            x="13.8701"
            y="19.252"
            width="99.2228"
            height="102.743"
            rx="49.6114"
            fill="#252525"
            stroke="#EAAEC1"
            stroke-width="2"
        />
        <path
            d="M54.0552 60.5813C54.5873 60.4335 54.9109 59.8782 54.7257 59.3588C54.3612 58.3367 53.8498 57.3752 53.2074 56.5077C52.3683 55.3746 51.3221 54.4238 50.1284 53.7097C48.9347 52.9956 47.6169 52.532 46.2504 52.3456C44.8838 52.1592 43.4952 52.2535 42.1638 52.6232C40.8324 52.9928 39.5843 53.6306 38.4908 54.5001C37.3972 55.3696 36.4797 56.4537 35.7905 57.6906C35.1013 58.9275 34.654 60.293 34.4741 61.7091C34.3364 62.7932 34.3574 63.8907 34.535 64.9648C34.6252 65.5105 35.1734 65.8238 35.7055 65.6761L35.767 65.659C36.2991 65.5113 36.6125 64.9583 36.5342 64.4105C36.4196 63.6092 36.4128 62.7938 36.5152 61.9875C36.6598 60.8492 37.0194 59.7515 37.5734 58.7572C38.1274 57.7629 38.865 56.8914 39.744 56.1925C40.6231 55.4936 41.6263 54.9809 42.6966 54.6837C43.7669 54.3866 44.8831 54.3107 45.9816 54.4606C47.0802 54.6105 48.1395 54.9831 49.099 55.5571C50.0586 56.1312 50.8996 56.8955 51.5741 57.8064C52.0519 58.4515 52.4395 59.1613 52.7268 59.9145C52.9233 60.4295 53.4616 60.7461 53.9937 60.5983L54.0552 60.5813Z"
            fill="#EAAEC1"
        />
        <path
            d="M92.9453 65.6761C93.4774 65.8238 94.0256 65.5105 94.1158 64.9648C94.2934 63.8907 94.3144 62.7932 94.1767 61.7091C93.9968 60.293 93.5494 58.9275 92.8603 57.6906C92.1711 56.4537 91.2535 55.3696 90.16 54.5001C89.0665 53.6306 87.8184 52.9928 86.487 52.6232C85.1556 52.2535 83.767 52.1592 82.4004 52.3456C81.0339 52.532 79.7161 52.9956 78.5224 53.7097C77.3287 54.4238 76.2825 55.3746 75.4434 56.5077C74.801 57.3752 74.2896 58.3367 73.9251 59.3588C73.7399 59.8782 74.0635 60.4335 74.5956 60.5813L74.6571 60.5983C75.1892 60.7461 75.7275 60.4295 75.924 59.9145C76.2113 59.1613 76.5989 58.4515 77.0767 57.8064C77.7512 56.8955 78.5922 56.1312 79.5518 55.5571C80.5113 54.9831 81.5706 54.6105 82.6692 54.4606C83.7677 54.3107 84.8839 54.3866 85.9542 54.6837C87.0244 54.9809 88.0277 55.4936 88.9068 56.1925C89.7858 56.8914 90.5234 57.7629 91.0774 58.7572C91.6314 59.7515 91.991 60.8492 92.1356 61.9875C92.238 62.7938 92.2312 63.6092 92.1166 64.4105C92.0383 64.9582 92.3517 65.5113 92.8838 65.659L92.9453 65.6761Z"
            fill="#EAAEC1"
        />
        <rect
            x="62.9082"
            y="80.6979"
            width="2.2876"
            height="8.29651"
            fill="#EAAEC1"
        />
        <mask
            id="path-9-outside-1_1055_2"
            maskUnits="userSpaceOnUse"
            x="51.8994"
            y="86.8832"
            width="13"
            height="8"
            fill="black"
        >
            <rect fill="white" x="51.8994" y="86.8832" width="13" height="8" />
            <path
                d="M63.7705 87.8093C64.0836 87.8093 64.3401 88.0636 64.3112 88.3753C64.2571 88.9594 64.1195 89.533 63.9021 90.0771C63.6147 90.7961 63.1934 91.4493 62.6623 91.9996C62.1313 92.5499 61.5008 92.9864 60.807 93.2842C60.1131 93.582 59.3694 93.7353 58.6184 93.7353C57.8674 93.7353 57.1237 93.582 56.4298 93.2842C55.736 92.9864 55.1055 92.5499 54.5745 91.9996C54.0434 91.4493 53.6222 90.7961 53.3347 90.0771C53.1173 89.533 52.9797 88.9594 52.9256 88.3753C52.8967 88.0636 53.1532 87.8093 53.4663 87.8093V87.8093C53.7794 87.8093 54.0298 88.0639 54.0658 88.3749C54.1155 88.8045 54.2217 89.2261 54.3822 89.6275C54.6126 90.2039 54.9504 90.7277 55.3762 91.1689C55.8019 91.6101 56.3074 91.9601 56.8637 92.1988C57.42 92.4376 58.0163 92.5605 58.6184 92.5605C59.2205 92.5605 59.8168 92.4376 60.3731 92.1988C60.9294 91.9601 61.4349 91.6101 61.8606 91.1689C62.2864 90.7277 62.6242 90.2039 62.8546 89.6275C63.0151 89.2261 63.1213 88.8045 63.171 88.3749C63.207 88.0639 63.4574 87.8093 63.7705 87.8093V87.8093Z"
            />
        </mask>
        <path
            d="M63.7705 87.8093C64.0836 87.8093 64.3401 88.0636 64.3112 88.3753C64.2571 88.9594 64.1195 89.533 63.9021 90.0771C63.6147 90.7961 63.1934 91.4493 62.6623 91.9996C62.1313 92.5499 61.5008 92.9864 60.807 93.2842C60.1131 93.582 59.3694 93.7353 58.6184 93.7353C57.8674 93.7353 57.1237 93.582 56.4298 93.2842C55.736 92.9864 55.1055 92.5499 54.5745 91.9996C54.0434 91.4493 53.6222 90.7961 53.3347 90.0771C53.1173 89.533 52.9797 88.9594 52.9256 88.3753C52.8967 88.0636 53.1532 87.8093 53.4663 87.8093V87.8093C53.7794 87.8093 54.0298 88.0639 54.0658 88.3749C54.1155 88.8045 54.2217 89.2261 54.3822 89.6275C54.6126 90.2039 54.9504 90.7277 55.3762 91.1689C55.8019 91.6101 56.3074 91.9601 56.8637 92.1988C57.42 92.4376 58.0163 92.5605 58.6184 92.5605C59.2205 92.5605 59.8168 92.4376 60.3731 92.1988C60.9294 91.9601 61.4349 91.6101 61.8606 91.1689C62.2864 90.7277 62.6242 90.2039 62.8546 89.6275C63.0151 89.2261 63.1213 88.8045 63.171 88.3749C63.207 88.0639 63.4574 87.8093 63.7705 87.8093V87.8093Z"
            fill="#EAAEC1"
        />
        <path
            d="M63.7705 87.8093C64.0836 87.8093 64.3401 88.0636 64.3112 88.3753C64.2571 88.9594 64.1195 89.533 63.9021 90.0771C63.6147 90.7961 63.1934 91.4493 62.6623 91.9996C62.1313 92.5499 61.5008 92.9864 60.807 93.2842C60.1131 93.582 59.3694 93.7353 58.6184 93.7353C57.8674 93.7353 57.1237 93.582 56.4298 93.2842C55.736 92.9864 55.1055 92.5499 54.5745 91.9996C54.0434 91.4493 53.6222 90.7961 53.3347 90.0771C53.1173 89.533 52.9797 88.9594 52.9256 88.3753C52.8967 88.0636 53.1532 87.8093 53.4663 87.8093V87.8093C53.7794 87.8093 54.0298 88.0639 54.0658 88.3749C54.1155 88.8045 54.2217 89.2261 54.3822 89.6275C54.6126 90.2039 54.9504 90.7277 55.3762 91.1689C55.8019 91.6101 56.3074 91.9601 56.8637 92.1988C57.42 92.4376 58.0163 92.5605 58.6184 92.5605C59.2205 92.5605 59.8168 92.4376 60.3731 92.1988C60.9294 91.9601 61.4349 91.6101 61.8606 91.1689C62.2864 90.7277 62.6242 90.2039 62.8546 89.6275C63.0151 89.2261 63.1213 88.8045 63.171 88.3749C63.207 88.0639 63.4574 87.8093 63.7705 87.8093V87.8093Z"
            stroke="#EAAEC1"
            stroke-width="0.5"
            mask="url(#path-9-outside-1_1055_2)"
        />
        <mask
            id="path-10-outside-2_1055_2"
            maskUnits="userSpaceOnUse"
            x="62.7646"
            y="86.8832"
            width="13"
            height="8"
            fill="black"
        >
            <rect fill="white" x="62.7646" y="86.8832" width="13" height="8" />
            <path
                d="M74.6357 87.8093C74.9488 87.8093 75.2053 88.0636 75.1765 88.3753C75.1224 88.9594 74.9848 89.533 74.7673 90.0771C74.4799 90.7961 74.0586 91.4493 73.5276 91.9996C72.9965 92.5499 72.3661 92.9864 71.6722 93.2842C70.9783 93.582 70.2347 93.7353 69.4836 93.7353C68.7326 93.7353 67.9889 93.582 67.2951 93.2842C66.6012 92.9864 65.9708 92.5499 65.4397 91.9996C64.9086 91.4493 64.4874 90.7961 64.2 90.0771C63.9825 89.533 63.8449 88.9594 63.7908 88.3753C63.7619 88.0636 64.0185 87.8093 64.3315 87.8093V87.8093C64.6446 87.8093 64.895 88.0639 64.931 88.3749C64.9807 88.8045 65.087 89.2261 65.2474 89.6275C65.4779 90.2039 65.8156 90.7277 66.2414 91.1689C66.6672 91.6101 67.1726 91.9601 67.7289 92.1988C68.2853 92.4376 68.8815 92.5605 69.4836 92.5605C70.0858 92.5605 70.682 92.4376 71.2383 92.1988C71.7946 91.9601 72.3001 91.6101 72.7259 91.1689C73.1517 90.7277 73.4894 90.2039 73.7198 89.6275C73.8803 89.2261 73.9865 88.8045 74.0362 88.3749C74.0722 88.0639 74.3227 87.8093 74.6357 87.8093V87.8093Z"
            />
        </mask>
        <path
            d="M74.6357 87.8093C74.9488 87.8093 75.2053 88.0636 75.1765 88.3753C75.1224 88.9594 74.9848 89.533 74.7673 90.0771C74.4799 90.7961 74.0586 91.4493 73.5276 91.9996C72.9965 92.5499 72.3661 92.9864 71.6722 93.2842C70.9783 93.582 70.2347 93.7353 69.4836 93.7353C68.7326 93.7353 67.9889 93.582 67.2951 93.2842C66.6012 92.9864 65.9708 92.5499 65.4397 91.9996C64.9086 91.4493 64.4874 90.7961 64.2 90.0771C63.9825 89.533 63.8449 88.9594 63.7908 88.3753C63.7619 88.0636 64.0185 87.8093 64.3315 87.8093V87.8093C64.6446 87.8093 64.895 88.0639 64.931 88.3749C64.9807 88.8045 65.087 89.2261 65.2474 89.6275C65.4779 90.2039 65.8156 90.7277 66.2414 91.1689C66.6672 91.6101 67.1726 91.9601 67.7289 92.1988C68.2853 92.4376 68.8815 92.5605 69.4836 92.5605C70.0858 92.5605 70.682 92.4376 71.2383 92.1988C71.7946 91.9601 72.3001 91.6101 72.7259 91.1689C73.1517 90.7277 73.4894 90.2039 73.7198 89.6275C73.8803 89.2261 73.9865 88.8045 74.0362 88.3749C74.0722 88.0639 74.3227 87.8093 74.6357 87.8093V87.8093Z"
            fill="#EAAEC1"
        />
        <path
            d="M74.6357 87.8093C74.9488 87.8093 75.2053 88.0636 75.1765 88.3753C75.1224 88.9594 74.9848 89.533 74.7673 90.0771C74.4799 90.7961 74.0586 91.4493 73.5276 91.9996C72.9965 92.5499 72.3661 92.9864 71.6722 93.2842C70.9783 93.582 70.2347 93.7353 69.4836 93.7353C68.7326 93.7353 67.9889 93.582 67.2951 93.2842C66.6012 92.9864 65.9708 92.5499 65.4397 91.9996C64.9086 91.4493 64.4874 90.7961 64.2 90.0771C63.9825 89.533 63.8449 88.9594 63.7908 88.3753C63.7619 88.0636 64.0185 87.8093 64.3315 87.8093V87.8093C64.6446 87.8093 64.895 88.0639 64.931 88.3749C64.9807 88.8045 65.087 89.2261 65.2474 89.6275C65.4779 90.2039 65.8156 90.7277 66.2414 91.1689C66.6672 91.6101 67.1726 91.9601 67.7289 92.1988C68.2853 92.4376 68.8815 92.5605 69.4836 92.5605C70.0858 92.5605 70.682 92.4376 71.2383 92.1988C71.7946 91.9601 72.3001 91.6101 72.7259 91.1689C73.1517 90.7277 73.4894 90.2039 73.7198 89.6275C73.8803 89.2261 73.9865 88.8045 74.0362 88.3749C74.0722 88.0639 74.3227 87.8093 74.6357 87.8093V87.8093Z"
            stroke="#EAAEC1"
            stroke-width="0.5"
            mask="url(#path-10-outside-2_1055_2)"
        />
        <rect
            width="16.0177"
            height="2.36981"
            rx="1"
            transform="matrix(0.995916 -0.0902864 0.084132 0.996455 25.1641 83.3293)"
            fill="#EAAEC1"
        />
        <rect
            width="13.7408"
            height="2.36798"
            rx="1"
            transform="matrix(0.983715 -0.179736 0.167754 0.985829 28.5957 91.4641)"
            fill="#EAAEC1"
        />
        <rect
            width="16.0177"
            height="2.36981"
            rx="1"
            transform="matrix(-0.995916 -0.0902864 -0.084132 0.996455 103.132 83.3293)"
            fill="#EAAEC1"
        />
        <rect
            width="13.7408"
            height="2.36798"
            rx="1"
            transform="matrix(-0.983715 -0.179736 -0.167754 0.985829 99.7002 91.4641)"
            fill="#EAAEC1"
        />
        <ellipse
            cx="64.0527"
            cy="77.1422"
            rx="4.57519"
            ry="4.74086"
            fill="#EAAEC1"
        />
    </g>
    <defs>
        <clipPath id="clip0_1055_2">
            <rect width="128" height="128" fill="white" />
        </clipPath>
    </defs>
</svg>
