<svg
    width="128"
    height="128"
    viewBox="0 0 128 128"
    fill="none"
    xmlns="http://www.w3.org/2000/svg"
>
    <g filter="url(#filter0_i_1052_2)">
        <g clip-path="url(#clip0_1052_2)">
            <rect
                width="128"
                height="128"
                rx="40"
                fill="url(#paint0_linear_1052_2)"
            />
            <path
                d="M24.3082 12.9374C23.9664 11.2623 25.7917 9.98527 27.295 10.8478L53.0698 25.637C54.3383 26.3648 54.427 28.1328 53.2367 28.9655L33.3217 42.8987C32.1314 43.7314 30.4563 43.0734 30.1679 41.6598L24.3082 12.9374Z"
                fill="#252525"
            />
            <path
                d="M26.7648 13.012L47.9829 25.4092L31.8006 36.7309L26.7648 13.012Z"
                fill="#EAAEC1"
            />
            <path
                d="M102.58 11.7603C104.083 10.8977 105.908 12.1748 105.566 13.85L99.7081 42.5734C99.4198 43.987 97.7447 44.6451 96.5545 43.8124L76.6394 29.8792C75.4492 29.0465 75.5378 27.2785 76.8063 26.5505L102.58 11.7603Z"
                fill="#252525"
            />
            <path
                d="M103.065 14.2402L98.0342 37.9596L81.8502 26.6369L103.065 14.2402Z"
                fill="#EAAEC1"
            />
            <g filter="url(#filter1_d_1052_2)">
                <rect
                    x="22"
                    y="21"
                    width="85"
                    height="85"
                    rx="42.5"
                    fill="#252525"
                />
            </g>
            <rect
                width="14.0114"
                height="2.00001"
                rx="1"
                transform="matrix(-0.996195 -0.0871557 -0.0871557 0.996195 99.2393 74.2202)"
                fill="#EAAEC1"
            />
            <rect
                width="12.0096"
                height="2.00005"
                rx="1"
                transform="matrix(-0.984832 -0.17351 -0.173787 0.984783 96.2373 81.0837)"
                fill="#EAAEC1"
            />
            <rect
                width="14.0114"
                height="2.00001"
                rx="1"
                transform="matrix(0.996201 -0.0870846 0.087227 0.996188 31.0176 74.2202)"
                fill="#EAAEC1"
            />
            <rect
                width="12.0096"
                height="2.00005"
                rx="1"
                transform="matrix(0.984832 -0.17351 0.173787 0.984783 34.0205 81.0837)"
                fill="#EAAEC1"
            />
            <rect
                x="64.0449"
                y="72"
                width="2.00165"
                height="7"
                fill="#EAAEC1"
            />
            <mask
                id="path-13-outside-1_1052_2"
                maskUnits="userSpaceOnUse"
                x="54.2881"
                y="77"
                width="12"
                height="7"
                fill="black"
            >
                <rect fill="white" x="54.2881" y="77" width="12" height="7" />
                <path
                    d="M64.8003 78C65.0742 78 65.2989 78.2226 65.2717 78.4952C65.2232 78.9819 65.1034 79.4599 64.9154 79.9134C64.6639 80.52 64.2953 81.0712 63.8306 81.5355C63.366 81.9998 62.8143 82.3681 62.2072 82.6194C61.6001 82.8707 60.9494 83 60.2922 83C59.6351 83 58.9843 82.8707 58.3772 82.6194C57.7701 82.3681 57.2184 81.9998 56.7538 81.5355C56.2891 81.0712 55.9205 80.52 55.669 79.9134C55.481 79.4599 55.3612 78.9819 55.3127 78.4952C55.2855 78.2226 55.5102 78 55.7841 78V78C56.0581 78 56.277 78.2229 56.3108 78.4948C56.3552 78.8512 56.4474 79.2008 56.5855 79.5341C56.7872 80.0205 57.0827 80.4624 57.4552 80.8346C57.8278 81.2069 58.2701 81.5022 58.7569 81.7036C59.2436 81.9051 59.7653 82.0088 60.2922 82.0088C60.8191 82.0088 61.3408 81.9051 61.8276 81.7036C62.3143 81.5022 62.7566 81.2069 63.1292 80.8346C63.5017 80.4624 63.7972 80.0205 63.9989 79.5341C64.137 79.2008 64.2292 78.8512 64.2736 78.4948C64.3074 78.2229 64.5264 78 64.8003 78V78Z"
                />
            </mask>
            <path
                d="M64.8003 78C65.0742 78 65.2989 78.2226 65.2717 78.4952C65.2232 78.9819 65.1034 79.4599 64.9154 79.9134C64.6639 80.52 64.2953 81.0712 63.8306 81.5355C63.366 81.9998 62.8143 82.3681 62.2072 82.6194C61.6001 82.8707 60.9494 83 60.2922 83C59.6351 83 58.9843 82.8707 58.3772 82.6194C57.7701 82.3681 57.2184 81.9998 56.7538 81.5355C56.2891 81.0712 55.9205 80.52 55.669 79.9134C55.481 79.4599 55.3612 78.9819 55.3127 78.4952C55.2855 78.2226 55.5102 78 55.7841 78V78C56.0581 78 56.277 78.2229 56.3108 78.4948C56.3552 78.8512 56.4474 79.2008 56.5855 79.5341C56.7872 80.0205 57.0827 80.4624 57.4552 80.8346C57.8278 81.2069 58.2701 81.5022 58.7569 81.7036C59.2436 81.9051 59.7653 82.0088 60.2922 82.0088C60.8191 82.0088 61.3408 81.9051 61.8276 81.7036C62.3143 81.5022 62.7566 81.2069 63.1292 80.8346C63.5017 80.4624 63.7972 80.0205 63.9989 79.5341C64.137 79.2008 64.2292 78.8512 64.2736 78.4948C64.3074 78.2229 64.5264 78 64.8003 78V78Z"
                fill="#EAAEC1"
            />
            <path
                d="M64.8003 78C65.0742 78 65.2989 78.2226 65.2717 78.4952C65.2232 78.9819 65.1034 79.4599 64.9154 79.9134C64.6639 80.52 64.2953 81.0712 63.8306 81.5355C63.366 81.9998 62.8143 82.3681 62.2072 82.6194C61.6001 82.8707 60.9494 83 60.2922 83C59.6351 83 58.9843 82.8707 58.3772 82.6194C57.7701 82.3681 57.2184 81.9998 56.7538 81.5355C56.2891 81.0712 55.9205 80.52 55.669 79.9134C55.481 79.4599 55.3612 78.9819 55.3127 78.4952C55.2855 78.2226 55.5102 78 55.7841 78V78C56.0581 78 56.277 78.2229 56.3108 78.4948C56.3552 78.8512 56.4474 79.2008 56.5855 79.5341C56.7872 80.0205 57.0827 80.4624 57.4552 80.8346C57.8278 81.2069 58.2701 81.5022 58.7569 81.7036C59.2436 81.9051 59.7653 82.0088 60.2922 82.0088C60.8191 82.0088 61.3408 81.9051 61.8276 81.7036C62.3143 81.5022 62.7566 81.2069 63.1292 80.8346C63.5017 80.4624 63.7972 80.0205 63.9989 79.5341C64.137 79.2008 64.2292 78.8512 64.2736 78.4948C64.3074 78.2229 64.5264 78 64.8003 78V78Z"
                stroke="#EAAEC1"
                stroke-width="0.5"
                mask="url(#path-13-outside-1_1052_2)"
            />
            <mask
                id="path-14-outside-2_1052_2"
                maskUnits="userSpaceOnUse"
                x="63.7959"
                y="77"
                width="12"
                height="7"
                fill="black"
            >
                <rect fill="white" x="63.7959" y="77" width="12" height="7" />
                <path
                    d="M74.3081 78C74.5821 78 74.8067 78.2226 74.7795 78.4952C74.731 78.9819 74.6112 79.4599 74.4232 79.9134C74.1717 80.52 73.8031 81.0712 73.3385 81.5355C72.8738 81.9998 72.3221 82.3681 71.715 82.6194C71.1079 82.8707 70.4572 83 69.8 83C69.1429 83 68.4922 82.8707 67.885 82.6194C67.2779 82.3681 66.7262 81.9998 66.2616 81.5355C65.7969 81.0712 65.4283 80.52 65.1768 79.9134C64.9888 79.4599 64.869 78.9819 64.8205 78.4952C64.7933 78.2226 65.018 78 65.2919 78V78C65.5659 78 65.7848 78.2229 65.8186 78.4948C65.863 78.8512 65.9552 79.2008 66.0933 79.5341C66.295 80.0205 66.5905 80.4624 66.9631 80.8346C67.3356 81.2069 67.7779 81.5022 68.2647 81.7036C68.7514 81.9051 69.2731 82.0088 69.8 82.0088C70.3269 82.0088 70.8486 81.9051 71.3354 81.7036C71.8221 81.5022 72.2644 81.2069 72.637 80.8346C73.0095 80.4624 73.3051 80.0205 73.5067 79.5341C73.6448 79.2008 73.737 78.8512 73.7814 78.4948C73.8153 78.2229 74.0342 78 74.3081 78V78Z"
                />
            </mask>
            <path
                d="M74.3081 78C74.5821 78 74.8067 78.2226 74.7795 78.4952C74.731 78.9819 74.6112 79.4599 74.4232 79.9134C74.1717 80.52 73.8031 81.0712 73.3385 81.5355C72.8738 81.9998 72.3221 82.3681 71.715 82.6194C71.1079 82.8707 70.4572 83 69.8 83C69.1429 83 68.4922 82.8707 67.885 82.6194C67.2779 82.3681 66.7262 81.9998 66.2616 81.5355C65.7969 81.0712 65.4283 80.52 65.1768 79.9134C64.9888 79.4599 64.869 78.9819 64.8205 78.4952C64.7933 78.2226 65.018 78 65.2919 78V78C65.5659 78 65.7848 78.2229 65.8186 78.4948C65.863 78.8512 65.9552 79.2008 66.0933 79.5341C66.295 80.0205 66.5905 80.4624 66.9631 80.8346C67.3356 81.2069 67.7779 81.5022 68.2647 81.7036C68.7514 81.9051 69.2731 82.0088 69.8 82.0088C70.3269 82.0088 70.8486 81.9051 71.3354 81.7036C71.8221 81.5022 72.2644 81.2069 72.637 80.8346C73.0095 80.4624 73.3051 80.0205 73.5067 79.5341C73.6448 79.2008 73.737 78.8512 73.7814 78.4948C73.8153 78.2229 74.0342 78 74.3081 78V78Z"
                fill="#EAAEC1"
            />
            <path
                d="M74.3081 78C74.5821 78 74.8067 78.2226 74.7795 78.4952C74.731 78.9819 74.6112 79.4599 74.4232 79.9134C74.1717 80.52 73.8031 81.0712 73.3385 81.5355C72.8738 81.9998 72.3221 82.3681 71.715 82.6194C71.1079 82.8707 70.4572 83 69.8 83C69.1429 83 68.4922 82.8707 67.885 82.6194C67.2779 82.3681 66.7262 81.9998 66.2616 81.5355C65.7969 81.0712 65.4283 80.52 65.1768 79.9134C64.9888 79.4599 64.869 78.9819 64.8205 78.4952C64.7933 78.2226 65.018 78 65.2919 78V78C65.5659 78 65.7848 78.2229 65.8186 78.4948C65.863 78.8512 65.9552 79.2008 66.0933 79.5341C66.295 80.0205 66.5905 80.4624 66.9631 80.8346C67.3356 81.2069 67.7779 81.5022 68.2647 81.7036C68.7514 81.9051 69.2731 82.0088 69.8 82.0088C70.3269 82.0088 70.8486 81.9051 71.3354 81.7036C71.8221 81.5022 72.2644 81.2069 72.637 80.8346C73.0095 80.4624 73.3051 80.0205 73.5067 79.5341C73.6448 79.2008 73.737 78.8512 73.7814 78.4948C73.8153 78.2229 74.0342 78 74.3081 78V78Z"
                stroke="#EAAEC1"
                stroke-width="0.5"
                mask="url(#path-14-outside-2_1052_2)"
            />
            <path
                d="M56.2717 55.0344C56.7521 54.9057 57.0414 54.4099 56.8661 53.9444C56.5484 53.1011 56.1077 52.3076 55.5567 51.5902C54.8225 50.6342 53.907 49.832 52.8626 49.2294C51.8181 48.6269 50.6651 48.2358 49.4693 48.0785C48.2736 47.9212 47.0585 48.0008 45.8936 48.3127C44.7286 48.6246 43.6365 49.1627 42.6797 49.8963C41.7228 50.6299 40.92 51.5446 40.317 52.5883C39.7139 53.6319 39.3225 54.784 39.1651 55.9787C39.047 56.8753 39.0623 57.7826 39.2092 58.6716C39.2903 59.1623 39.789 59.4473 40.2695 59.3186V59.3186C40.7499 59.19 41.0291 58.6963 40.9598 58.2037C40.8671 57.5452 40.8638 56.8757 40.951 56.2137C41.0776 55.2532 41.3922 54.3271 41.877 53.4882C42.3617 52.6493 43.0071 51.914 43.7763 51.3242C44.5454 50.7345 45.4233 50.302 46.3598 50.0512C47.2962 49.8005 48.273 49.7366 49.2342 49.863C50.1954 49.9894 51.1223 50.3038 51.9619 50.7882C52.8015 51.2725 53.5374 51.9174 54.1276 52.6859C54.5345 53.2157 54.8666 53.7971 55.1159 54.4138C55.3023 54.8749 55.7912 55.163 56.2717 55.0344V55.0344Z"
                fill="#EAAEC1"
            />
            <path
                d="M90.3009 59.3186C90.7813 59.4472 91.28 59.1623 91.3611 58.6716C91.508 57.7826 91.5233 56.8752 91.4052 55.9787C91.2478 54.7839 90.8564 53.6318 90.2534 52.5882C89.6503 51.5446 88.8475 50.6299 87.8906 49.8963C86.9338 49.1627 85.8417 48.6246 84.6768 48.3127C83.5118 48.0008 82.2967 47.9212 81.101 48.0785C79.9053 48.2358 78.7522 48.6269 77.7077 49.2294C76.6633 49.8319 75.7478 50.6341 75.0136 51.5902C74.4626 52.3076 74.0219 53.1011 73.7043 53.9443C73.5289 54.4098 73.8182 54.9057 74.2987 55.0343V55.0343C74.7791 55.163 75.268 54.8749 75.4544 54.4137C75.7037 53.7971 76.0358 53.2157 76.4427 52.6859C77.0329 51.9173 77.7688 51.2725 78.6084 50.7881C79.448 50.3038 80.3749 49.9894 81.3361 49.863C82.2973 49.7365 83.2741 49.8005 84.2105 50.0512C85.147 50.3019 86.0249 50.7345 86.794 51.3242C87.5632 51.9139 88.2086 52.6492 88.6933 53.4882C89.1781 54.3271 89.4927 55.2532 89.6193 56.2136C89.7065 56.8757 89.7032 57.5452 89.6105 58.2037C89.5412 58.6962 89.8204 59.1899 90.3009 59.3186V59.3186Z"
                fill="#EAAEC1"
            />
            <ellipse cx="65.0463" cy="69" rx="4.00329" ry="4" fill="#EAAEC1" />
        </g>
        <rect
            x="1"
            y="1"
            width="126"
            height="126"
            rx="39"
            stroke="#202020"
            stroke-width="2"
        />
    </g>
    <defs>
        <filter
            id="filter0_i_1052_2"
            x="0"
            y="0"
            width="128"
            height="128"
            filterUnits="userSpaceOnUse"
            color-interpolation-filters="sRGB"
        >
            <feFlood flood-opacity="0" result="BackgroundImageFix" />
            <feBlend
                mode="normal"
                in="SourceGraphic"
                in2="BackgroundImageFix"
                result="shape"
            />
            <feColorMatrix
                in="SourceAlpha"
                type="matrix"
                values="0 0 0 0 0 0 0 0 0 0 0 0 0 0 0 0 0 0 127 0"
                result="hardAlpha"
            />
            <feMorphology
                radius="8"
                operator="erode"
                in="SourceAlpha"
                result="effect1_innerShadow_1052_2"
            />
            <feOffset />
            <feGaussianBlur stdDeviation="3" />
            <feComposite in2="hardAlpha" operator="arithmetic" k2="-1" k3="1" />
            <feColorMatrix
                type="matrix"
                values="0 0 0 0 0.835808 0 0 0 0 0.364192 0 0 0 0 0.51441 0 0 0 0.5 0"
            />
            <feBlend
                mode="normal"
                in2="shape"
                result="effect1_innerShadow_1052_2"
            />
        </filter>
        <filter
            id="filter1_d_1052_2"
            x="20"
            y="19"
            width="89"
            height="89"
            filterUnits="userSpaceOnUse"
            color-interpolation-filters="sRGB"
        >
            <feFlood flood-opacity="0" result="BackgroundImageFix" />
            <feColorMatrix
                in="SourceAlpha"
                type="matrix"
                values="0 0 0 0 0 0 0 0 0 0 0 0 0 0 0 0 0 0 127 0"
                result="hardAlpha"
            />
            <feOffset />
            <feGaussianBlur stdDeviation="1" />
            <feComposite in2="hardAlpha" operator="out" />
            <feColorMatrix
                type="matrix"
                values="0 0 0 0 0 0 0 0 0 0 0 0 0 0 0 0 0 0 0.25 0"
            />
            <feBlend
                mode="normal"
                in2="BackgroundImageFix"
                result="effect1_dropShadow_1052_2"
            />
            <feBlend
                mode="normal"
                in="SourceGraphic"
                in2="effect1_dropShadow_1052_2"
                result="shape"
            />
        </filter>
        <linearGradient
            id="paint0_linear_1052_2"
            x1="0"
            y1="0"
            x2="128"
            y2="128"
            gradientUnits="userSpaceOnUse"
        >
            <stop stop-color="#B62F5A" />
            <stop offset="1" stop-color="#D55D83" />
        </linearGradient>
        <clipPath id="clip0_1052_2">
            <rect width="128" height="128" rx="40" fill="white" />
        </clipPath>
    </defs>
</svg>
