<!-- Neospring Neo! https://github.com/trisuaso/trisuaso/tree/main/assets/neospring-neo -->
<svg
    width="128"
    height="128"
    viewBox="0 0 128 128"
    fill="none"
    xmlns="http://www.w3.org/2000/svg"
>
    <g filter="url(#filter0_i_1052_2)">
        <rect
            width="128"
            height="128"
            rx="40"
            fill="url(#paint0_linear_1052_2)"
        />
        <rect
            x="1"
            y="1"
            width="126"
            height="126"
            rx="39"
            stroke="#202020"
            stroke-width="2"
        />
        <path
            d="M24.3082 18.9374C23.9664 17.2623 25.7917 15.9853 27.295 16.8478L53.0698 31.637C54.3383 32.3648 54.427 34.1328 53.2367 34.9655L33.3217 48.8987C32.1314 49.7314 30.4563 49.0734 30.1679 47.6598L24.3082 18.9374Z"
            fill="#252525"
        />
        <path
            d="M26.7648 19.012L47.9829 31.4092L31.8006 42.7309L26.7648 19.012Z"
            fill="#EAAEC1"
        />
        <path
            d="M102.58 17.7603C104.083 16.8977 105.908 18.1748 105.566 19.85L99.7081 48.5734C99.4198 49.987 97.7447 50.6451 96.5545 49.8124L76.6394 35.8792C75.4492 35.0465 75.5378 33.2785 76.8063 32.5505L102.58 17.7603Z"
            fill="#252525"
        />
        <path
            d="M103.065 20.2402L98.0342 43.9596L81.8502 32.6369L103.065 20.2402Z"
            fill="#EAAEC1"
        />
        <g filter="url(#filter1_d_1052_2)">
            <rect
                x="22"
                y="27"
                width="85"
                height="85"
                rx="42.5"
                fill="#252525"
            />
        </g>
        <rect
            width="14.0114"
            height="2.00001"
            rx="1"
            transform="matrix(-0.996195 -0.0871557 -0.0871557 0.996195 99.2393 80.2202)"
            fill="#EAAEC1"
        />
        <rect
            width="12.0096"
            height="2.00005"
            rx="1"
            transform="matrix(-0.984832 -0.17351 -0.173787 0.984783 96.2373 87.0837)"
            fill="#EAAEC1"
        />
        <rect
            width="14.0114"
            height="2.00001"
            rx="1"
            transform="matrix(0.996201 -0.0870846 0.087227 0.996188 31.0176 80.2202)"
            fill="#EAAEC1"
        />
        <rect
            width="12.0096"
            height="2.00005"
            rx="1"
            transform="matrix(0.984832 -0.17351 0.173787 0.984783 34.0205 87.0837)"
            fill="#EAAEC1"
        />
        <rect x="64.0449" y="78" width="2.00165" height="7" fill="#EAAEC1" />
        <mask
            id="path-13-outside-1_1052_2"
            maskUnits="userSpaceOnUse"
            x="54.2881"
            y="83"
            width="12"
            height="7"
            fill="black"
        >
            <rect fill="white" x="54.2881" y="83" width="12" height="7" />
            <path
                d="M64.8003 84C65.0742 84 65.2989 84.2226 65.2717 84.4952C65.2232 84.9819 65.1034 85.4599 64.9154 85.9134C64.6639 86.52 64.2953 87.0712 63.8306 87.5355C63.366 87.9998 62.8143 88.3681 62.2072 88.6194C61.6001 88.8707 60.9494 89 60.2922 89C59.6351 89 58.9843 88.8707 58.3772 88.6194C57.7701 88.3681 57.2184 87.9998 56.7538 87.5355C56.2891 87.0712 55.9205 86.52 55.669 85.9134C55.481 85.4599 55.3612 84.9819 55.3127 84.4952C55.2855 84.2226 55.5102 84 55.7841 84V84C56.0581 84 56.277 84.2229 56.3108 84.4948C56.3552 84.8512 56.4474 85.2008 56.5855 85.5341C56.7872 86.0205 57.0827 86.4624 57.4552 86.8346C57.8278 87.2069 58.2701 87.5022 58.7569 87.7036C59.2436 87.9051 59.7653 88.0088 60.2922 88.0088C60.8191 88.0088 61.3408 87.9051 61.8276 87.7036C62.3143 87.5022 62.7566 87.2069 63.1292 86.8346C63.5017 86.4624 63.7972 86.0205 63.9989 85.5341C64.137 85.2008 64.2292 84.8512 64.2736 84.4948C64.3074 84.2229 64.5264 84 64.8003 84V84Z"
            />
        </mask>
        <path
            d="M64.8003 84C65.0742 84 65.2989 84.2226 65.2717 84.4952C65.2232 84.9819 65.1034 85.4599 64.9154 85.9134C64.6639 86.52 64.2953 87.0712 63.8306 87.5355C63.366 87.9998 62.8143 88.3681 62.2072 88.6194C61.6001 88.8707 60.9494 89 60.2922 89C59.6351 89 58.9843 88.8707 58.3772 88.6194C57.7701 88.3681 57.2184 87.9998 56.7538 87.5355C56.2891 87.0712 55.9205 86.52 55.669 85.9134C55.481 85.4599 55.3612 84.9819 55.3127 84.4952C55.2855 84.2226 55.5102 84 55.7841 84V84C56.0581 84 56.277 84.2229 56.3108 84.4948C56.3552 84.8512 56.4474 85.2008 56.5855 85.5341C56.7872 86.0205 57.0827 86.4624 57.4552 86.8346C57.8278 87.2069 58.2701 87.5022 58.7569 87.7036C59.2436 87.9051 59.7653 88.0088 60.2922 88.0088C60.8191 88.0088 61.3408 87.9051 61.8276 87.7036C62.3143 87.5022 62.7566 87.2069 63.1292 86.8346C63.5017 86.4624 63.7972 86.0205 63.9989 85.5341C64.137 85.2008 64.2292 84.8512 64.2736 84.4948C64.3074 84.2229 64.5264 84 64.8003 84V84Z"
            fill="#EAAEC1"
        />
        <path
            d="M64.8003 84C65.0742 84 65.2989 84.2226 65.2717 84.4952C65.2232 84.9819 65.1034 85.4599 64.9154 85.9134C64.6639 86.52 64.2953 87.0712 63.8306 87.5355C63.366 87.9998 62.8143 88.3681 62.2072 88.6194C61.6001 88.8707 60.9494 89 60.2922 89C59.6351 89 58.9843 88.8707 58.3772 88.6194C57.7701 88.3681 57.2184 87.9998 56.7538 87.5355C56.2891 87.0712 55.9205 86.52 55.669 85.9134C55.481 85.4599 55.3612 84.9819 55.3127 84.4952C55.2855 84.2226 55.5102 84 55.7841 84V84C56.0581 84 56.277 84.2229 56.3108 84.4948C56.3552 84.8512 56.4474 85.2008 56.5855 85.5341C56.7872 86.0205 57.0827 86.4624 57.4552 86.8346C57.8278 87.2069 58.2701 87.5022 58.7569 87.7036C59.2436 87.9051 59.7653 88.0088 60.2922 88.0088C60.8191 88.0088 61.3408 87.9051 61.8276 87.7036C62.3143 87.5022 62.7566 87.2069 63.1292 86.8346C63.5017 86.4624 63.7972 86.0205 63.9989 85.5341C64.137 85.2008 64.2292 84.8512 64.2736 84.4948C64.3074 84.2229 64.5264 84 64.8003 84V84Z"
            stroke="#EAAEC1"
            stroke-width="0.5"
            mask="url(#path-13-outside-1_1052_2)"
        />
        <mask
            id="path-14-outside-2_1052_2"
            maskUnits="userSpaceOnUse"
            x="63.7959"
            y="83"
            width="12"
            height="7"
            fill="black"
        >
            <rect fill="white" x="63.7959" y="83" width="12" height="7" />
            <path
                d="M74.3081 84C74.5821 84 74.8067 84.2226 74.7795 84.4952C74.731 84.9819 74.6112 85.4599 74.4232 85.9134C74.1717 86.52 73.8031 87.0712 73.3385 87.5355C72.8738 87.9998 72.3221 88.3681 71.715 88.6194C71.1079 88.8707 70.4572 89 69.8 89C69.1429 89 68.4922 88.8707 67.885 88.6194C67.2779 88.3681 66.7262 87.9998 66.2616 87.5355C65.7969 87.0712 65.4283 86.52 65.1768 85.9134C64.9888 85.4599 64.869 84.9819 64.8205 84.4952C64.7933 84.2226 65.018 84 65.2919 84V84C65.5659 84 65.7848 84.2229 65.8186 84.4948C65.863 84.8512 65.9552 85.2008 66.0933 85.5341C66.295 86.0205 66.5905 86.4624 66.9631 86.8346C67.3356 87.2069 67.7779 87.5022 68.2647 87.7036C68.7514 87.9051 69.2731 88.0088 69.8 88.0088C70.3269 88.0088 70.8486 87.9051 71.3354 87.7036C71.8221 87.5022 72.2644 87.2069 72.637 86.8346C73.0095 86.4624 73.3051 86.0205 73.5067 85.5341C73.6448 85.2008 73.737 84.8512 73.7814 84.4948C73.8153 84.2229 74.0342 84 74.3081 84V84Z"
            />
        </mask>
        <path
            d="M74.3081 84C74.5821 84 74.8067 84.2226 74.7795 84.4952C74.731 84.9819 74.6112 85.4599 74.4232 85.9134C74.1717 86.52 73.8031 87.0712 73.3385 87.5355C72.8738 87.9998 72.3221 88.3681 71.715 88.6194C71.1079 88.8707 70.4572 89 69.8 89C69.1429 89 68.4922 88.8707 67.885 88.6194C67.2779 88.3681 66.7262 87.9998 66.2616 87.5355C65.7969 87.0712 65.4283 86.52 65.1768 85.9134C64.9888 85.4599 64.869 84.9819 64.8205 84.4952C64.7933 84.2226 65.018 84 65.2919 84V84C65.5659 84 65.7848 84.2229 65.8186 84.4948C65.863 84.8512 65.9552 85.2008 66.0933 85.5341C66.295 86.0205 66.5905 86.4624 66.9631 86.8346C67.3356 87.2069 67.7779 87.5022 68.2647 87.7036C68.7514 87.9051 69.2731 88.0088 69.8 88.0088C70.3269 88.0088 70.8486 87.9051 71.3354 87.7036C71.8221 87.5022 72.2644 87.2069 72.637 86.8346C73.0095 86.4624 73.3051 86.0205 73.5067 85.5341C73.6448 85.2008 73.737 84.8512 73.7814 84.4948C73.8153 84.2229 74.0342 84 74.3081 84V84Z"
            fill="#EAAEC1"
        />
        <path
            d="M74.3081 84C74.5821 84 74.8067 84.2226 74.7795 84.4952C74.731 84.9819 74.6112 85.4599 74.4232 85.9134C74.1717 86.52 73.8031 87.0712 73.3385 87.5355C72.8738 87.9998 72.3221 88.3681 71.715 88.6194C71.1079 88.8707 70.4572 89 69.8 89C69.1429 89 68.4922 88.8707 67.885 88.6194C67.2779 88.3681 66.7262 87.9998 66.2616 87.5355C65.7969 87.0712 65.4283 86.52 65.1768 85.9134C64.9888 85.4599 64.869 84.9819 64.8205 84.4952C64.7933 84.2226 65.018 84 65.2919 84V84C65.5659 84 65.7848 84.2229 65.8186 84.4948C65.863 84.8512 65.9552 85.2008 66.0933 85.5341C66.295 86.0205 66.5905 86.4624 66.9631 86.8346C67.3356 87.2069 67.7779 87.5022 68.2647 87.7036C68.7514 87.9051 69.2731 88.0088 69.8 88.0088C70.3269 88.0088 70.8486 87.9051 71.3354 87.7036C71.8221 87.5022 72.2644 87.2069 72.637 86.8346C73.0095 86.4624 73.3051 86.0205 73.5067 85.5341C73.6448 85.2008 73.737 84.8512 73.7814 84.4948C73.8153 84.2229 74.0342 84 74.3081 84V84Z"
            stroke="#EAAEC1"
            stroke-width="0.5"
            mask="url(#path-14-outside-2_1052_2)"
        />
        <path
            d="M56.2717 61.0344C56.7521 60.9057 57.0414 60.4099 56.8661 59.9444C56.5484 59.1011 56.1077 58.3076 55.5567 57.5902C54.8225 56.6342 53.907 55.832 52.8626 55.2294C51.8181 54.6269 50.6651 54.2358 49.4693 54.0785C48.2736 53.9212 47.0585 54.0008 45.8936 54.3127C44.7286 54.6246 43.6365 55.1627 42.6797 55.8963C41.7228 56.6299 40.92 57.5446 40.317 58.5883C39.7139 59.6319 39.3225 60.784 39.1651 61.9787C39.047 62.8753 39.0623 63.7826 39.2092 64.6716C39.2903 65.1623 39.789 65.4473 40.2695 65.3186V65.3186C40.7499 65.19 41.0291 64.6963 40.9598 64.2037C40.8671 63.5452 40.8638 62.8757 40.951 62.2137C41.0776 61.2532 41.3922 60.3271 41.877 59.4882C42.3617 58.6493 43.0071 57.914 43.7763 57.3242C44.5454 56.7345 45.4233 56.302 46.3598 56.0512C47.2962 55.8005 48.273 55.7366 49.2342 55.863C50.1954 55.9894 51.1223 56.3038 51.9619 56.7882C52.8015 57.2725 53.5374 57.9174 54.1276 58.6859C54.5345 59.2157 54.8666 59.7971 55.1159 60.4138C55.3023 60.8749 55.7912 61.163 56.2717 61.0344V61.0344Z"
            fill="#EAAEC1"
        />
        <path
            d="M90.3009 65.3186C90.7813 65.4472 91.28 65.1623 91.3611 64.6716C91.508 63.7826 91.5233 62.8752 91.4052 61.9787C91.2478 60.7839 90.8564 59.6318 90.2534 58.5882C89.6503 57.5446 88.8475 56.6299 87.8906 55.8963C86.9338 55.1627 85.8417 54.6246 84.6768 54.3127C83.5118 54.0008 82.2967 53.9212 81.101 54.0785C79.9053 54.2358 78.7522 54.6269 77.7077 55.2294C76.6633 55.8319 75.7478 56.6341 75.0136 57.5902C74.4626 58.3076 74.0219 59.1011 73.7043 59.9443C73.5289 60.4098 73.8182 60.9057 74.2987 61.0343V61.0343C74.7791 61.163 75.268 60.8749 75.4544 60.4137C75.7037 59.7971 76.0358 59.2157 76.4427 58.6859C77.0329 57.9173 77.7688 57.2725 78.6084 56.7881C79.448 56.3038 80.3749 55.9894 81.3361 55.863C82.2973 55.7365 83.2741 55.8005 84.2105 56.0512C85.147 56.3019 86.0249 56.7345 86.794 57.3242C87.5632 57.9139 88.2086 58.6492 88.6933 59.4882C89.1781 60.3271 89.4927 61.2532 89.6193 62.2136C89.7065 62.8757 89.7032 63.5452 89.6105 64.2037C89.5412 64.6962 89.8204 65.1899 90.3009 65.3186V65.3186Z"
            fill="#EAAEC1"
        />
        <ellipse cx="65.0463" cy="75" rx="4.00329" ry="4" fill="#EAAEC1" />
    </g>
    <defs>
        <filter
            id="filter0_i_1052_2"
            x="0"
            y="0"
            width="128"
            height="128"
            filterUnits="userSpaceOnUse"
            color-interpolation-filters="sRGB"
        >
            <feFlood flood-opacity="0" result="BackgroundImageFix" />
            <feBlend
                mode="normal"
                in="SourceGraphic"
                in2="BackgroundImageFix"
                result="shape"
            />
            <feColorMatrix
                in="SourceAlpha"
                type="matrix"
                values="0 0 0 0 0 0 0 0 0 0 0 0 0 0 0 0 0 0 127 0"
                result="hardAlpha"
            />
            <feMorphology
                radius="8"
                operator="erode"
                in="SourceAlpha"
                result="effect1_innerShadow_1052_2"
            />
            <feOffset />
            <feGaussianBlur stdDeviation="3" />
            <feComposite in2="hardAlpha" operator="arithmetic" k2="-1" k3="1" />
            <feColorMatrix
                type="matrix"
                values="0 0 0 0 0.835808 0 0 0 0 0.364192 0 0 0 0 0.51441 0 0 0 0.5 0"
            />
            <feBlend
                mode="normal"
                in2="shape"
                result="effect1_innerShadow_1052_2"
            />
        </filter>
        <filter
            id="filter1_d_1052_2"
            x="20"
            y="25"
            width="89"
            height="89"
            filterUnits="userSpaceOnUse"
            color-interpolation-filters="sRGB"
        >
            <feFlood flood-opacity="0" result="BackgroundImageFix" />
            <feColorMatrix
                in="SourceAlpha"
                type="matrix"
                values="0 0 0 0 0 0 0 0 0 0 0 0 0 0 0 0 0 0 127 0"
                result="hardAlpha"
            />
            <feOffset />
            <feGaussianBlur stdDeviation="1" />
            <feComposite in2="hardAlpha" operator="out" />
            <feColorMatrix
                type="matrix"
                values="0 0 0 0 0 0 0 0 0 0 0 0 0 0 0 0 0 0 0.25 0"
            />
            <feBlend
                mode="normal"
                in2="BackgroundImageFix"
                result="effect1_dropShadow_1052_2"
            />
            <feBlend
                mode="normal"
                in="SourceGraphic"
                in2="effect1_dropShadow_1052_2"
                result="shape"
            />
        </filter>
        <linearGradient
            id="paint0_linear_1052_2"
            x1="0"
            y1="0"
            x2="128"
            y2="128"
            gradientUnits="userSpaceOnUse"
        >
            <stop stop-color="#B62F5A" />
            <stop offset="1" stop-color="#D55D83" />
        </linearGradient>
    </defs>
</svg>
