<!-- Neospring Neo! https://github.com/trisuaso -->
<svg
    width="128"
    height="128"
    viewBox="0 0 128 128"
    fill="none"
    xmlns="http://www.w3.org/2000/svg"
>
    <g filter="url(#filter0_i_1052_2)">
        <rect
            width="128"
            height="128"
            rx="40"
            fill="url(#paint0_linear_1052_2)"
        />
        <rect
            x="1"
            y="1"
            width="126"
            height="126"
            rx="39"
            stroke="#202020"
            stroke-width="2"
        />
        <g filter="url(#filter1_d_1052_2)">
            <rect
                x="21"
                y="28"
                width="85"
                height="85"
                rx="42.5"
                fill="#252525"
            />
        </g>
        <path
            d="M55.2334 62.0344C55.7134 61.9057 56.0025 61.4102 55.8275 60.945C55.5101 60.1015 55.0696 59.3078 54.519 58.5902C53.7854 57.6342 52.8707 56.832 51.8271 56.2294C50.7834 55.6269 49.6314 55.2358 48.4366 55.0785C47.2418 54.9212 46.0278 55.0008 44.8638 55.3127C43.6998 55.6246 42.6086 56.1627 41.6526 56.8963C40.6965 57.6299 39.8943 58.5446 39.2918 59.5883C38.6892 60.6319 38.2982 61.784 38.1409 62.9787C38.0228 63.8755 38.0382 64.7831 38.1851 65.6722C38.2661 66.1626 38.7642 66.4473 39.2443 66.3186V66.3186C39.7244 66.19 40.0035 65.6966 39.9342 65.2044C39.8415 64.5456 39.8382 63.8759 39.9253 63.2137C40.0518 62.2532 40.3662 61.3271 40.8505 60.4882C41.3349 59.6493 41.9797 58.914 42.7482 58.3242C43.5168 57.7345 44.3939 57.302 45.3296 57.0512C46.2653 56.8005 47.2413 56.7366 48.2017 56.863C49.1621 56.9894 50.0882 57.3038 50.9271 57.7882C51.7661 58.2725 52.5014 58.9174 53.0911 59.6859C53.4977 60.2159 53.8297 60.7975 54.0788 61.4144C54.2649 61.8752 54.7533 62.163 55.2334 62.0344V62.0344Z"
            fill="#EAAEC1"
        />
        <path
            d="M89.2333 66.3186C89.7133 66.4472 90.2115 66.1626 90.2925 65.6722C90.4394 64.783 90.4548 63.8754 90.3367 62.9787C90.1794 61.7839 89.7883 60.6318 89.1858 59.5882C88.5833 58.5446 87.7811 57.6299 86.825 56.8963C85.869 56.1627 84.7778 55.6246 83.6138 55.3127C82.4498 55.0008 81.2357 54.9212 80.041 55.0785C78.8462 55.2358 77.6941 55.6269 76.6505 56.2294C75.6069 56.8319 74.6922 57.6341 73.9586 58.5902C73.4079 59.3078 72.9675 60.1015 72.6501 60.9449C72.4751 61.4101 72.7641 61.9057 73.2442 62.0343V62.0343C73.7243 62.163 74.2127 61.8752 74.3988 61.4143C74.6479 60.7975 74.9798 60.2158 75.3865 59.6859C75.9762 58.9173 76.7115 58.2725 77.5504 57.7881C78.3894 57.3038 79.3155 56.9894 80.2759 56.863C81.2363 56.7365 82.2122 56.8005 83.1479 57.0512C84.0836 57.3019 84.9608 57.7345 85.7293 58.3242C86.4979 58.9139 87.1427 59.6492 87.6271 60.4882C88.1114 61.3271 88.4258 62.2532 88.5522 63.2136C88.6394 63.8759 88.6361 64.5456 88.5434 65.2043C88.4741 65.6965 88.7532 66.1899 89.2333 66.3186V66.3186Z"
            fill="#EAAEC1"
        />
        <path
            d="M101.519 18.8628C103.026 17.9858 104.866 19.2743 104.513 20.959L98.3821 50.2167C98.0871 51.6245 96.4186 52.2753 95.2327 51.4449L75.1989 37.4171C74.013 36.5868 74.0955 34.8254 75.3545 34.0926L101.519 18.8628Z"
            fill="#252525"
        />
        <path
            d="M101.987 21.3777L96.742 45.4785L80.5028 34.1077L101.987 21.3777Z"
            fill="#EAAEC1"
        />
        <path
            d="M23.3948 19.959C23.0418 18.2743 24.8819 16.9858 26.3885 17.8627L52.553 33.0926C53.8121 33.8254 53.8945 35.5867 52.7087 36.417L32.6748 50.4449C31.489 51.2752 29.8205 50.6245 29.5255 49.2167L23.3948 19.959Z"
            fill="#252525"
        />
        <path
            d="M25.8739 20.057L47.3612 32.7876L31.1235 44.1573L25.8739 20.057Z"
            fill="#EAAEC1"
        />
        <circle cx="64" cy="76" r="4" fill="#EAAEC1" />
        <rect x="63" y="79" width="2" height="7" fill="#EAAEC1" />
        <mask
            id="path-12-outside-1_1052_2"
            maskUnits="userSpaceOnUse"
            x="53.25"
            y="84"
            width="12"
            height="7"
            fill="black"
        >
            <rect fill="white" x="53.25" y="84" width="12" height="7" />
            <path
                d="M63.7544 85C64.0281 85 64.2525 85.2224 64.2255 85.4948C64.177 85.9817 64.0573 86.4597 63.8694 86.9134C63.6181 87.52 63.2498 88.0712 62.7855 88.5355C62.3212 88.9998 61.77 89.3681 61.1634 89.6194C60.5568 89.8707 59.9066 90 59.25 90C58.5934 90 57.9432 89.8707 57.3366 89.6194C56.73 89.3681 56.1788 88.9998 55.7145 88.5355C55.2502 88.0712 54.8819 87.52 54.6306 86.9134C54.4427 86.4597 54.323 85.9817 54.2745 85.4948C54.2475 85.2224 54.4719 85 54.7456 85V85C55.0193 85 55.2381 85.2227 55.2718 85.4944C55.3161 85.8509 55.4083 86.2007 55.5464 86.5341C55.7478 87.0205 56.0431 87.4624 56.4154 87.8346C56.7876 88.2069 57.2295 88.5022 57.7159 88.7036C58.2023 88.9051 58.7236 89.0088 59.25 89.0088C59.7764 89.0088 60.2977 88.9051 60.7841 88.7036C61.2705 88.5022 61.7124 88.2069 62.0846 87.8346C62.4569 87.4624 62.7522 87.0205 62.9536 86.5341C63.0917 86.2007 63.1839 85.8509 63.2282 85.4944C63.2619 85.2227 63.4807 85 63.7544 85V85Z"
            />
        </mask>
        <path
            d="M63.7544 85C64.0281 85 64.2525 85.2224 64.2255 85.4948C64.177 85.9817 64.0573 86.4597 63.8694 86.9134C63.6181 87.52 63.2498 88.0712 62.7855 88.5355C62.3212 88.9998 61.77 89.3681 61.1634 89.6194C60.5568 89.8707 59.9066 90 59.25 90C58.5934 90 57.9432 89.8707 57.3366 89.6194C56.73 89.3681 56.1788 88.9998 55.7145 88.5355C55.2502 88.0712 54.8819 87.52 54.6306 86.9134C54.4427 86.4597 54.323 85.9817 54.2745 85.4948C54.2475 85.2224 54.4719 85 54.7456 85V85C55.0193 85 55.2381 85.2227 55.2718 85.4944C55.3161 85.8509 55.4083 86.2007 55.5464 86.5341C55.7478 87.0205 56.0431 87.4624 56.4154 87.8346C56.7876 88.2069 57.2295 88.5022 57.7159 88.7036C58.2023 88.9051 58.7236 89.0088 59.25 89.0088C59.7764 89.0088 60.2977 88.9051 60.7841 88.7036C61.2705 88.5022 61.7124 88.2069 62.0846 87.8346C62.4569 87.4624 62.7522 87.0205 62.9536 86.5341C63.0917 86.2007 63.1839 85.8509 63.2282 85.4944C63.2619 85.2227 63.4807 85 63.7544 85V85Z"
            fill="#EAAEC1"
        />
        <path
            d="M63.7544 85C64.0281 85 64.2525 85.2224 64.2255 85.4948C64.177 85.9817 64.0573 86.4597 63.8694 86.9134C63.6181 87.52 63.2498 88.0712 62.7855 88.5355C62.3212 88.9998 61.77 89.3681 61.1634 89.6194C60.5568 89.8707 59.9066 90 59.25 90C58.5934 90 57.9432 89.8707 57.3366 89.6194C56.73 89.3681 56.1788 88.9998 55.7145 88.5355C55.2502 88.0712 54.8819 87.52 54.6306 86.9134C54.4427 86.4597 54.323 85.9817 54.2745 85.4948C54.2475 85.2224 54.4719 85 54.7456 85V85C55.0193 85 55.2381 85.2227 55.2718 85.4944C55.3161 85.8509 55.4083 86.2007 55.5464 86.5341C55.7478 87.0205 56.0431 87.4624 56.4154 87.8346C56.7876 88.2069 57.2295 88.5022 57.7159 88.7036C58.2023 88.9051 58.7236 89.0088 59.25 89.0088C59.7764 89.0088 60.2977 88.9051 60.7841 88.7036C61.2705 88.5022 61.7124 88.2069 62.0846 87.8346C62.4569 87.4624 62.7522 87.0205 62.9536 86.5341C63.0917 86.2007 63.1839 85.8509 63.2282 85.4944C63.2619 85.2227 63.4807 85 63.7544 85V85Z"
            stroke="#EAAEC1"
            stroke-width="0.5"
            mask="url(#path-12-outside-1_1052_2)"
        />
        <mask
            id="path-13-outside-2_1052_2"
            maskUnits="userSpaceOnUse"
            x="62.75"
            y="84"
            width="12"
            height="7"
            fill="black"
        >
            <rect fill="white" x="62.75" y="84" width="12" height="7" />
            <path
                d="M73.2544 85C73.5281 85 73.7525 85.2224 73.7255 85.4948C73.677 85.9817 73.5573 86.4597 73.3694 86.9134C73.1181 87.52 72.7498 88.0712 72.2855 88.5355C71.8212 88.9998 71.27 89.3681 70.6634 89.6194C70.0568 89.8707 69.4066 90 68.75 90C68.0934 90 67.4432 89.8707 66.8366 89.6194C66.23 89.3681 65.6788 88.9998 65.2145 88.5355C64.7502 88.0712 64.3819 87.52 64.1306 86.9134C63.9427 86.4597 63.823 85.9817 63.7745 85.4948C63.7475 85.2224 63.9719 85 64.2456 85V85C64.5193 85 64.7381 85.2227 64.7718 85.4944C64.8161 85.8509 64.9083 86.2007 65.0464 86.5341C65.2478 87.0205 65.5431 87.4624 65.9154 87.8346C66.2876 88.2069 66.7295 88.5022 67.2159 88.7036C67.7023 88.9051 68.2236 89.0088 68.75 89.0088C69.2764 89.0088 69.7977 88.9051 70.2841 88.7036C70.7705 88.5022 71.2124 88.2069 71.5846 87.8346C71.9569 87.4624 72.2522 87.0205 72.4536 86.5341C72.5917 86.2007 72.6839 85.8509 72.7282 85.4944C72.7619 85.2227 72.9807 85 73.2544 85V85Z"
            />
        </mask>
        <path
            d="M73.2544 85C73.5281 85 73.7525 85.2224 73.7255 85.4948C73.677 85.9817 73.5573 86.4597 73.3694 86.9134C73.1181 87.52 72.7498 88.0712 72.2855 88.5355C71.8212 88.9998 71.27 89.3681 70.6634 89.6194C70.0568 89.8707 69.4066 90 68.75 90C68.0934 90 67.4432 89.8707 66.8366 89.6194C66.23 89.3681 65.6788 88.9998 65.2145 88.5355C64.7502 88.0712 64.3819 87.52 64.1306 86.9134C63.9427 86.4597 63.823 85.9817 63.7745 85.4948C63.7475 85.2224 63.9719 85 64.2456 85V85C64.5193 85 64.7381 85.2227 64.7718 85.4944C64.8161 85.8509 64.9083 86.2007 65.0464 86.5341C65.2478 87.0205 65.5431 87.4624 65.9154 87.8346C66.2876 88.2069 66.7295 88.5022 67.2159 88.7036C67.7023 88.9051 68.2236 89.0088 68.75 89.0088C69.2764 89.0088 69.7977 88.9051 70.2841 88.7036C70.7705 88.5022 71.2124 88.2069 71.5846 87.8346C71.9569 87.4624 72.2522 87.0205 72.4536 86.5341C72.5917 86.2007 72.6839 85.8509 72.7282 85.4944C72.7619 85.2227 72.9807 85 73.2544 85V85Z"
            fill="#EAAEC1"
        />
        <path
            d="M73.2544 85C73.5281 85 73.7525 85.2224 73.7255 85.4948C73.677 85.9817 73.5573 86.4597 73.3694 86.9134C73.1181 87.52 72.7498 88.0712 72.2855 88.5355C71.8212 88.9998 71.27 89.3681 70.6634 89.6194C70.0568 89.8707 69.4066 90 68.75 90C68.0934 90 67.4432 89.8707 66.8366 89.6194C66.23 89.3681 65.6788 88.9998 65.2145 88.5355C64.7502 88.0712 64.3819 87.52 64.1306 86.9134C63.9427 86.4597 63.823 85.9817 63.7745 85.4948C63.7475 85.2224 63.9719 85 64.2456 85V85C64.5193 85 64.7381 85.2227 64.7718 85.4944C64.8161 85.8509 64.9083 86.2007 65.0464 86.5341C65.2478 87.0205 65.5431 87.4624 65.9154 87.8346C66.2876 88.2069 66.7295 88.5022 67.2159 88.7036C67.7023 88.9051 68.2236 89.0088 68.75 89.0088C69.2764 89.0088 69.7977 88.9051 70.2841 88.7036C70.7705 88.5022 71.2124 88.2069 71.5846 87.8346C71.9569 87.4624 72.2522 87.0205 72.4536 86.5341C72.5917 86.2007 72.6839 85.8509 72.7282 85.4944C72.7619 85.2227 72.9807 85 73.2544 85V85Z"
            stroke="#EAAEC1"
            stroke-width="0.5"
            mask="url(#path-13-outside-2_1052_2)"
        />
        <rect
            x="30"
            y="81.2202"
            width="14"
            height="2"
            rx="1"
            transform="rotate(-5 30 81.2202)"
            fill="#EAAEC1"
        />
        <rect
            x="33"
            y="88.0837"
            width="12"
            height="2"
            rx="1"
            transform="rotate(-10 33 88.0837)"
            fill="#EAAEC1"
        />
        <rect
            width="14"
            height="2"
            rx="1"
            transform="matrix(-0.996195 -0.0871557 -0.0871557 0.996195 98.165 81.2202)"
            fill="#EAAEC1"
        />
        <rect
            width="12"
            height="2"
            rx="1"
            transform="matrix(-0.984808 -0.173648 -0.173648 0.984808 95.165 88.0837)"
            fill="#EAAEC1"
        />
    </g>
    <defs>
        <filter
            id="filter0_i_1052_2"
            x="0"
            y="0"
            width="128"
            height="128"
            filterUnits="userSpaceOnUse"
            color-interpolation-filters="sRGB"
        >
            <feFlood flood-opacity="0" result="BackgroundImageFix" />
            <feBlend
                mode="normal"
                in="SourceGraphic"
                in2="BackgroundImageFix"
                result="shape"
            />
            <feColorMatrix
                in="SourceAlpha"
                type="matrix"
                values="0 0 0 0 0 0 0 0 0 0 0 0 0 0 0 0 0 0 127 0"
                result="hardAlpha"
            />
            <feMorphology
                radius="8"
                operator="erode"
                in="SourceAlpha"
                result="effect1_innerShadow_1052_2"
            />
            <feOffset />
            <feGaussianBlur stdDeviation="3" />
            <feComposite in2="hardAlpha" operator="arithmetic" k2="-1" k3="1" />
            <feColorMatrix
                type="matrix"
                values="0 0 0 0 0.835808 0 0 0 0 0.364192 0 0 0 0 0.51441 0 0 0 0.5 0"
            />
            <feBlend
                mode="normal"
                in2="shape"
                result="effect1_innerShadow_1052_2"
            />
        </filter>
        <filter
            id="filter1_d_1052_2"
            x="19"
            y="26"
            width="89"
            height="89"
            filterUnits="userSpaceOnUse"
            color-interpolation-filters="sRGB"
        >
            <feFlood flood-opacity="0" result="BackgroundImageFix" />
            <feColorMatrix
                in="SourceAlpha"
                type="matrix"
                values="0 0 0 0 0 0 0 0 0 0 0 0 0 0 0 0 0 0 127 0"
                result="hardAlpha"
            />
            <feOffset />
            <feGaussianBlur stdDeviation="1" />
            <feComposite in2="hardAlpha" operator="out" />
            <feColorMatrix
                type="matrix"
                values="0 0 0 0 0 0 0 0 0 0 0 0 0 0 0 0 0 0 0.25 0"
            />
            <feBlend
                mode="normal"
                in2="BackgroundImageFix"
                result="effect1_dropShadow_1052_2"
            />
            <feBlend
                mode="normal"
                in="SourceGraphic"
                in2="effect1_dropShadow_1052_2"
                result="shape"
            />
        </filter>
        <linearGradient
            id="paint0_linear_1052_2"
            x1="0"
            y1="0"
            x2="128"
            y2="128"
            gradientUnits="userSpaceOnUse"
        >
            <stop stop-color="#B62F5A" />
            <stop offset="1" stop-color="#D55D83" />
        </linearGradient>
    </defs>
</svg>
